<svg width="64" height="66" viewBox="0 0 64 66" fill="none" xmlns="http://www.w3.org/2000/svg" xmlns:xlink="http://www.w3.org/1999/xlink">
<path d="M28.333,27.545L52.333,27.545L52.333,21.545L28.333,21.545L28.333,27.545ZM52.333,27.545C53.622,27.545 54.667,28.59 54.667,29.878L60.667,29.878C60.667,25.276 56.936,21.545 52.333,21.545L52.333,27.545ZM54.667,29.878L54.667,53.878L60.667,53.878L60.667,29.878L54.667,29.878ZM54.667,53.878C54.667,55.167 53.622,56.212 52.333,56.212L52.333,62.212C56.936,62.212 60.667,58.481 60.667,53.878L54.667,53.878ZM52.333,56.212L28.333,56.212L28.333,62.212L52.333,62.212L52.333,56.212ZM28.333,56.212C27.045,56.212 26,55.167 26,53.878L20,53.878C20,58.481 23.731,62.212 28.333,62.212L28.333,56.212ZM26,53.878L26,29.878L20,29.878L20,53.878L26,53.878ZM26,29.878C26,28.59 27.045,27.545 28.333,27.545L28.333,21.545C23.731,21.545 20,25.276 20,29.878L26,29.878Z" fill="#FFFFFF"/>
<path d="M12.333,43.545C13.99,43.545 15.333,42.202 15.333,40.545C15.333,38.888 13.99,37.545 12.333,37.545L12.333,43.545ZM4.333,35.212L1.333,35.212L4.333,35.212ZM9.666,5.878L9.666,2.878L9.666,5.878ZM33.666,5.878L33.666,2.878L33.666,5.878ZM36,13.878C36,15.535 37.343,16.878 39,16.878C40.657,16.878 42,15.535 42,13.878L36,13.878ZM12.333,37.545L9.666,37.545L9.666,43.545L12.333,43.545L12.333,37.545ZM9.666,37.545C9.048,37.545 8.454,37.299 8.016,36.861L3.774,41.104C5.337,42.667 7.456,43.545 9.666,43.545L9.666,37.545ZM8.016,36.861C7.579,36.424 7.333,35.83 7.333,35.212L1.333,35.212C1.333,37.422 2.211,39.541 3.774,41.104L8.016,36.861ZM7.333,35.212L7.333,11.212L1.333,11.212L1.333,35.212L7.333,35.212ZM7.333,11.212C7.333,10.593 7.579,9.999 8.016,9.562L3.774,5.319C2.211,6.882 1.333,9.001 1.333,11.212L7.333,11.212ZM8.016,9.562C8.454,9.124 9.048,8.878 9.666,8.878L9.666,2.878C7.456,2.878 5.337,3.756 3.774,5.319L8.016,9.562ZM9.666,8.878L33.666,8.878L33.666,2.878L9.666,2.878L9.666,8.878ZM33.666,8.878C34.285,8.878 34.879,9.124 35.316,9.562L39.559,5.319C37.996,3.756 35.876,2.878 33.666,2.878L33.666,8.878ZM35.316,9.562C35.754,9.999 36,10.593 36,11.212L42,11.212C42,9.001 41.122,6.882 39.559,5.319L35.316,9.562ZM36,11.212L36,13.878L42,13.878L42,11.212L36,11.212Z" fill="#FFFFFF"/>
</svg>
