<svg width="64" height="66" viewBox="0 0 64 66" fill="none" xmlns="http://www.w3.org/2000/svg" xmlns:xlink="http://www.w3.org/1999/xlink">
<path d="M62.333,11.212C62.333,10.107 61.438,9.212 60.333,9.212C59.228,9.212 58.333,10.107 58.333,11.212L62.333,11.212ZM60.333,27.212L60.333,29.212C61.438,29.212 62.333,28.316 62.333,27.212L60.333,27.212ZM44.333,25.212C43.228,25.212 42.333,26.107 42.333,27.212C42.333,28.316 43.228,29.212 44.333,29.212L44.333,25.212ZM58.333,11.212L58.333,27.212L62.333,27.212L62.333,11.212L58.333,11.212ZM60.333,25.212L44.333,25.212L44.333,29.212L60.333,29.212L60.333,25.212Z" fill="#FFFFFF"/>
<path d="M-0.333,53.878C-0.333,54.983 0.562,55.878 1.667,55.878C2.772,55.878 3.667,54.983 3.667,53.878L-0.333,53.878ZM1.667,37.878L1.667,35.878C0.562,35.878 -0.333,36.774 -0.333,37.878L1.667,37.878ZM17.667,39.878C18.772,39.878 19.667,38.983 19.667,37.878C19.667,36.774 18.772,35.878 17.667,35.878L17.667,39.878ZM3.667,53.878L3.667,37.878L-0.333,37.878L-0.333,53.878L3.667,53.878ZM1.667,39.878L17.667,39.878L17.667,35.878L1.667,35.878L1.667,39.878Z" fill="#FFFFFF"/>
<path d="M5.532,23.544C4.979,25.106 5.798,26.82 7.36,27.373C8.921,27.926 10.636,27.108 11.188,25.546L5.532,23.544ZM47.96,15.585L45.838,17.706C45.865,17.732 45.892,17.758 45.92,17.784L47.96,15.585ZM56.293,27.411C57.507,28.538 59.406,28.467 60.533,27.252C61.66,26.038 61.589,24.14 60.374,23.013L56.293,27.411ZM5.708,37.679C4.493,36.552 2.595,36.623 1.468,37.838C0.341,39.052 0.412,40.95 1.626,42.077L5.708,37.679ZM14.04,49.505L16.162,47.384C16.136,47.358 16.109,47.331 16.081,47.306L14.04,49.505ZM56.468,41.546C57.021,39.984 56.203,38.269 54.641,37.717C53.079,37.164 51.365,37.982 50.812,39.544L56.468,41.546ZM11.188,25.546C12.372,22.202 14.383,19.212 17.035,16.855L13.049,12.37C9.64,15.4 7.054,19.244 5.532,23.544L11.188,25.546ZM17.035,16.855C19.686,14.498 22.891,12.852 26.351,12.069L25.027,6.217C20.579,7.223 16.458,9.34 13.049,12.37L17.035,16.855ZM26.351,12.069C29.811,11.286 33.413,11.393 36.821,12.378L38.488,6.614C34.106,5.347 29.476,5.21 25.027,6.217L26.351,12.069ZM36.821,12.378C40.228,13.364 43.331,15.197 45.838,17.706L50.082,13.464C46.858,10.238 42.869,7.882 38.488,6.614L36.821,12.378ZM45.92,17.784L56.293,27.411L60.374,23.013L50.001,13.386L45.92,17.784ZM1.626,42.077L12,51.704L16.081,47.306L5.708,37.679L1.626,42.077ZM11.918,51.626C15.143,54.852 19.132,57.208 23.513,58.475L25.18,52.712C21.772,51.726 18.67,49.893 16.162,47.384L11.918,51.626ZM23.513,58.475C27.894,59.743 32.525,59.879 36.974,58.873L35.65,53.021C32.19,53.804 28.588,53.697 25.18,52.712L23.513,58.475ZM36.974,58.873C41.422,57.866 45.543,55.749 48.952,52.719L44.966,48.235C42.315,50.591 39.109,52.238 35.65,53.021L36.974,58.873ZM48.952,52.719C52.361,49.689 54.947,45.845 56.468,41.546L50.812,39.544C49.629,42.888 47.618,45.878 44.966,48.235L48.952,52.719Z" fill="#FFFFFF"/>
</svg>
