<svg width="74" height="74" viewBox="0 0 74 74" fill="none" xmlns="http://www.w3.org/2000/svg" xmlns:xlink="http://www.w3.org/1999/xlink">
<path d="M15.308,37.462L58.475,37.462L58.475,29.462L15.308,29.462L15.308,37.462ZM58.475,37.462C59.672,37.462 60.642,38.432 60.642,39.628L68.642,39.628C68.642,34.013 64.09,29.462 58.475,29.462L58.475,37.462ZM60.642,39.628L60.642,61.212L68.642,61.212L68.642,39.628L60.642,39.628ZM60.642,61.212C60.642,62.408 59.672,63.378 58.475,63.378L58.475,71.378C64.09,71.378 68.642,66.826 68.642,61.212L60.642,61.212ZM58.475,63.378L15.308,63.378L15.308,71.378L58.475,71.378L58.475,63.378ZM15.308,63.378C14.112,63.378 13.142,62.408 13.142,61.212L5.142,61.212C5.142,66.826 9.693,71.378 15.308,71.378L15.308,63.378ZM13.142,61.212L13.142,39.628L5.142,39.628L5.142,61.212L13.142,61.212ZM13.142,39.628C13.142,38.432 14.112,37.462 15.308,37.462L15.308,29.462C9.693,29.462 5.142,34.013 5.142,39.628L13.142,39.628Z" fill="#FD58FF"/>
<path d="M17.475,33.462C17.475,35.671 19.265,37.462 21.475,37.462C23.684,37.462 25.475,35.671 25.475,33.462L17.475,33.462ZM21.475,21.128L25.475,21.128L25.475,21.124L21.475,21.128ZM52,18.045L56,18.045C56,17.778 55.973,17.511 55.92,17.249L52,18.045ZM48,33.462C48,35.671 49.79,37.462 52,37.462C54.209,37.462 56,35.671 56,33.462L48,33.462ZM25.475,33.462L25.475,21.128L17.475,21.128L17.475,33.462L25.475,33.462ZM25.475,21.124C25.472,18.293 26.521,15.562 28.419,13.461L22.482,8.099C19.254,11.672 17.47,16.317 17.475,21.132L25.475,21.124ZM28.419,13.461C30.316,11.359 32.927,10.038 35.744,9.754L34.94,1.794C30.149,2.278 25.709,4.525 22.482,8.099L28.419,13.461ZM35.744,9.754C38.561,9.469 41.383,10.242 43.662,11.921L48.407,5.48C44.53,2.624 39.731,1.31 34.94,1.794L35.744,9.754ZM43.662,11.921C45.942,13.6 47.516,16.066 48.08,18.841L55.92,17.249C54.961,12.53 52.284,8.336 48.407,5.48L43.662,11.921ZM48,18.045L48,33.462L56,33.462L56,18.045L48,18.045Z" fill="#FD58FF"/>
</svg>
